<svg width="24" height="24" viewBox="0 0 24 24" fill="none" xmlns="http://www.w3.org/2000/svg">
<mask id="mask0_58_710" style="mask-type:alpha" maskUnits="userSpaceOnUse" x="0" y="0" width="24" height="24">
<rect width="24" height="24" fill="#D9D9D9"/>
</mask>
<g mask="url(#mask0_58_710)">
<path d="M20.6228 15.2478C20.2678 15.6568 19.645 15.645 19.2621 15.2621L19.1325 15.1325C18.7322 14.7322 18.7501 14.0834 19.1063 13.6434C19.5134 13.1405 19.8529 12.5844 20.125 11.975C20.5417 11.0417 20.75 10.05 20.75 8.99999C20.75 7.94999 20.5417 6.96665 20.125 6.04999C19.851 5.4471 19.5084 4.89468 19.0974 4.39272C18.7427 3.95953 18.7199 3.3198 19.1094 2.91767L19.2623 2.75991C19.6434 2.3665 20.2746 2.34969 20.633 2.76396C21.2526 3.48035 21.7666 4.28403 22.175 5.17499C22.725 6.37499 23 7.64999 23 8.99999C23 10.35 22.725 11.625 22.175 12.825C21.7644 13.7208 21.247 14.5284 20.6228 15.2478ZM17.3965 12.0528C17.0702 12.4745 16.4538 12.4538 16.0768 12.0768L15.8776 11.8776C15.4792 11.4792 15.5056 10.8349 15.788 10.3472C15.8183 10.2948 15.8473 10.2416 15.875 10.1875C16.0583 9.82915 16.15 9.43332 16.15 8.99999C16.15 8.56665 16.0583 8.17082 15.875 7.81249C15.8473 7.75838 15.8183 7.70513 15.788 7.65273C15.5056 7.16512 15.4792 6.52082 15.8776 6.12239L16.0768 5.92317C16.4538 5.54615 17.0702 5.52547 17.3965 5.94718C17.6332 6.25316 17.8344 6.58326 18 6.93749C18.3 7.57915 18.45 8.26665 18.45 8.99999C18.45 9.73332 18.3 10.4208 18 11.0625C17.8344 11.4167 17.6332 11.7468 17.3965 12.0528ZM9 13C7.9 13 6.95833 12.6083 6.175 11.825C5.39167 11.0417 5 10.1 5 8.99999C5 7.89999 5.39167 6.95832 6.175 6.17499C6.95833 5.39165 7.9 4.99999 9 4.99999C10.1 4.99999 11.0417 5.39165 11.825 6.17499C12.6083 6.95832 13 7.89999 13 8.99999C13 10.1 12.6083 11.0417 11.825 11.825C11.0417 12.6083 10.1 13 9 13ZM2 21C1.44772 21 1 20.5523 1 20V18.2C1 17.65 1.14167 17.1333 1.425 16.65C1.70833 16.1667 2.1 15.8 2.6 15.55C3.45 15.1167 4.40833 14.75 5.475 14.45C6.54167 14.15 7.71667 14 9 14C10.2833 14 11.4583 14.15 12.525 14.45C13.5917 14.75 14.55 15.1167 15.4 15.55C15.9 15.8 16.2917 16.1667 16.575 16.65C16.8583 17.1333 17 17.65 17 18.2V20C17 20.5523 16.5523 21 16 21H2ZM3 19H15V18.2C15 18.0167 14.9542 17.85 14.8625 17.7C14.7708 17.55 14.65 17.4333 14.5 17.35C13.9 17.05 13.1292 16.75 12.1875 16.45C11.2458 16.15 10.1833 16 9 16C7.81667 16 6.75417 16.15 5.8125 16.45C4.87083 16.75 4.1 17.05 3.5 17.35C3.35 17.4333 3.22917 17.55 3.1375 17.7C3.04583 17.85 3 18.0167 3 18.2V19ZM9 11C9.55 11 10.0208 10.8042 10.4125 10.4125C10.8042 10.0208 11 9.54999 11 8.99999C11 8.44999 10.8042 7.97915 10.4125 7.58749C10.0208 7.19582 9.55 6.99999 9 6.99999C8.45 6.99999 7.97917 7.19582 7.5875 7.58749C7.19583 7.97915 7 8.44999 7 8.99999C7 9.54999 7.19583 10.0208 7.5875 10.4125C7.97917 10.8042 8.45 11 9 11Z" fill="#464646"/>
</g>
</svg>
