<svg width="48" height="48" viewBox="0 0 48 48" fill="none" xmlns="http://www.w3.org/2000/svg">
<rect width="48" height="48" rx="24" fill="#7651E9"/>
<path d="M23.5 15C22.675 15 21.9688 14.7062 21.3813 14.1187C20.7938 13.5312 20.5 12.825 20.5 12C20.5 11.175 20.7938 10.4688 21.3813 9.88125C21.9688 9.29375 22.675 9 23.5 9C24.325 9 25.0313 9.29375 25.6188 9.88125C26.2063 10.4688 26.5 11.175 26.5 12C26.5 12.825 26.2063 13.5312 25.6188 14.1187C25.0313 14.7062 24.325 15 23.5 15ZM20.5 39C19.6716 39 19 38.3284 19 37.5V19.5H11.5C10.6716 19.5 10 18.8284 10 18C10 17.1716 10.6716 16.5 11.5 16.5H35.5C36.3284 16.5 37 17.1716 37 18C37 18.8284 36.3284 19.5 35.5 19.5H28V37.5C28 38.3284 27.3284 39 26.5 39C25.6716 39 25 38.3284 25 37.5V31.5C25 30.6716 24.3284 30 23.5 30C22.6716 30 22 30.6716 22 31.5V37.5C22 38.3284 21.3284 39 20.5 39Z" fill="white"/>
<path fill-rule="evenodd" clip-rule="evenodd" d="M23.5 15C22.675 15 21.9688 14.7062 21.3813 14.1187C20.7938 13.5312 20.5 12.825 20.5 12C20.5 11.175 20.7938 10.4688 21.3813 9.88125C21.9688 9.29375 22.675 9 23.5 9C24.325 9 25.0313 9.29375 25.6188 9.88125C26.2063 10.4688 26.5 11.175 26.5 12C26.5 12.825 26.2063 13.5312 25.6188 14.1187C25.0313 14.7062 24.325 15 23.5 15ZM19 37.5V19.5H11.5C10.6716 19.5 10 18.8284 10 18C10 17.1716 10.6716 16.5 11.5 16.5H35.5C36.3284 16.5 37 17.1716 37 18C37 18.8284 36.3284 19.5 35.5 19.5H28V37.5C28 38.3284 27.3284 39 26.5 39C25.6716 39 25 38.3284 25 37.5V31.5C25 30.6716 24.3284 30 23.5 30C22.6716 30 22 30.6716 22 31.5V37.5C22 38.3284 21.3284 39 20.5 39C19.6716 39 19 38.3284 19 37.5Z" fill="white"/>
</svg>
