<svg width="21" height="22" viewBox="0 0 21 22" fill="none" xmlns="http://www.w3.org/2000/svg">
<path fill-rule="evenodd" clip-rule="evenodd" d="M11 0.499512C12.3833 0.499512 13.6837 0.762606 14.9004 1.2876C16.117 1.81259 17.1752 2.52534 18.0752 3.42529C18.9751 4.32522 19.6879 5.38356 20.2129 6.6001C20.7378 7.81667 21 9.11728 21 10.5005C20.9999 11.8836 20.7378 13.1844 20.2129 14.4009C19.6879 15.6173 18.975 16.6759 18.0752 17.5757C17.1753 18.4755 16.1168 19.1885 14.9004 19.7134C13.6838 20.2383 12.3832 20.5005 11 20.5005C10.2501 20.5005 9.51639 20.4215 8.7998 20.2632C8.08326 20.1049 7.38341 19.8669 6.7002 19.5503L0 21.5005L1.9502 14.8003C1.63363 14.1172 1.39563 13.4171 1.2373 12.7007C1.07901 11.9842 1.00003 11.2503 1 10.5005C1 9.11734 1.26225 7.81662 1.78711 6.6001C2.31203 5.38367 3.02502 4.32517 3.9248 3.42529C4.82466 2.52543 5.88318 1.81257 7.09961 1.2876C8.3162 0.762628 9.61676 0.499543 11 0.499512ZM11 2.50049C8.76677 2.50054 6.87514 3.27574 5.3252 4.82568C3.77544 6.37562 3 8.26733 3 10.5005C3.00004 11.1003 3.0669 11.6927 3.2002 12.2759C3.33353 12.8589 3.53326 13.4176 3.7998 13.9507C3.91635 14.1672 3.97898 14.3966 3.9873 14.6382C3.99556 14.8795 3.9669 15.1171 3.90039 15.3501L2.9502 18.5503L6.15039 17.6001C6.38345 17.5336 6.62093 17.5093 6.8623 17.5259C7.10393 17.5425 7.33317 17.6007 7.5498 17.7007C8.08297 17.9673 8.64147 18.167 9.22461 18.3003C9.80786 18.4336 10.4001 18.5005 11 18.5005C13.2332 18.5005 15.1249 17.725 16.6748 16.1753C18.2247 14.6254 18.9999 12.7336 19 10.5005C19 8.26721 18.2247 6.37566 16.6748 4.82568C15.1248 3.27568 13.2333 2.50049 11 2.50049Z" fill="white"/>
</svg>
