<svg width="85" height="98" viewBox="0 0 85 98" fill="none" xmlns="http://www.w3.org/2000/svg">
<path d="M78.4252 20.0918C82.1235 20.7805 84.5683 24.3634 83.8857 28.0946L72.3095 91.3757C71.6269 95.1069 68.0755 97.5733 64.3772 96.8847L20.1806 88.6554C19.0747 88.4494 18.081 87.9843 17.2493 87.3341H52.7527C61.0264 87.3341 67.7337 80.5672 67.7337 72.2199V18.1008L78.4252 20.0918Z" fill="#9E7FFF"/>
<path fill-rule="evenodd" clip-rule="evenodd" d="M52.7525 1C56.5133 1 59.562 4.07585 59.562 7.87009V72.2199C59.562 76.0141 56.5133 79.09 52.7525 79.09H7.80954C4.04874 79.09 1 76.0141 1 72.2199V31.2284H20.2937C25.6842 31.2284 30.054 26.8197 30.054 21.3813V1H52.7525ZM12.8032 52.2966C11.5496 52.2967 10.5334 53.3219 10.5333 54.5867V58.2507C10.5333 59.5155 11.5496 60.5407 12.8032 60.5408H37.5445C38.7981 60.5408 39.8144 59.5155 39.8144 58.2507V54.5867C39.8144 53.3219 38.7981 52.2966 37.5445 52.2966H12.8032ZM12.8032 42.6785C11.5496 42.6785 10.5334 43.7038 10.5333 44.9686V48.6326C10.5333 49.8973 11.5496 50.9226 12.8032 50.9226H47.7588C49.0124 50.9226 50.0287 49.8974 50.0287 48.6326V44.9686C50.0287 43.7038 49.0124 42.6785 47.7588 42.6785H12.8032ZM12.8032 33.0604C11.5496 33.0604 10.5334 34.0857 10.5333 35.3504V39.0145C10.5333 40.2792 11.5496 41.3045 12.8032 41.3045H47.7588C49.0124 41.3045 50.0287 40.2792 50.0287 39.0145V35.3504C50.0287 34.0857 49.0124 33.0604 47.7588 33.0604H12.8032Z" fill="#9E7FFF"/>
<path d="M21.4286 21.3813C21.4286 22.0136 20.9205 22.5263 20.2937 22.5263H1.87824L21.4286 2.80206V21.3813Z" fill="#9E7FFF"/>
<path d="M67.8252 17.6094L78.5166 19.6006C82.4896 20.3404 85.1093 24.1862 84.3779 28.1846L72.8018 91.4658C72.0701 95.4652 68.2602 98.1157 64.2861 97.376L20.0889 89.1465C18.902 88.9254 17.8344 88.4266 16.9414 87.7285C16.7733 87.5971 16.7069 87.3726 16.7764 87.1709C16.8459 86.9694 17.0359 86.8341 17.249 86.834H52.7529C60.7462 86.8338 67.2334 80.295 67.2334 72.2197V18.1006C67.2335 17.952 67.2998 17.8108 67.4141 17.7158C67.5284 17.6209 67.6791 17.5822 67.8252 17.6094ZM52.7529 0.5C56.7938 0.500249 60.0615 3.80407 60.0615 7.87012V72.2197C60.0615 76.2858 56.7938 79.5896 52.7529 79.5898H7.80957C3.76847 79.5898 0.5 76.2859 0.5 72.2197V31.2285C0.5 30.9524 0.723858 30.7285 1 30.7285H20.2939C25.404 30.7284 29.5537 26.5472 29.5537 21.3809V1C29.5537 0.723961 29.7777 0.500167 30.0537 0.5H52.7529ZM12.8027 52.7969C11.8297 52.7971 11.0332 53.5943 11.0332 54.5869V58.251C11.0333 59.2435 11.8297 60.0408 12.8027 60.041H37.5449C38.5179 60.0408 39.3143 59.2435 39.3145 58.251V54.5869C39.3145 53.5943 38.518 52.7971 37.5449 52.7969H12.8027ZM12.8027 43.1787C11.8297 43.179 11.0332 43.9761 11.0332 44.9688V48.6328C11.0333 49.6253 11.8297 50.4226 12.8027 50.4229H47.7588C48.732 50.4229 49.5282 49.6255 49.5283 48.6328V44.9688C49.5283 43.976 48.7321 43.1787 47.7588 43.1787H12.8027ZM12.8027 33.5605C11.8297 33.5608 11.0332 34.358 11.0332 35.3506V39.0146C11.0333 40.0072 11.8297 40.8044 12.8027 40.8047H47.7588C48.732 40.8047 49.5282 40.0074 49.5283 39.0146V35.3506C49.5283 34.3578 48.7321 33.5605 47.7588 33.5605H12.8027ZM21.0732 2.4502C21.2159 2.30628 21.4318 2.26271 21.6191 2.33984C21.8063 2.41699 21.9286 2.59933 21.9287 2.80176V21.3809C21.9287 22.2851 21.2009 23.0262 20.2939 23.0264H1.87793C1.67629 23.0262 1.49465 22.9048 1.41699 22.7188C1.33934 22.5325 1.38136 22.3172 1.52344 22.1738L21.0732 2.4502Z" stroke="#9E7FFF" stroke-linejoin="round"/>
</svg>
