<svg width="24" height="25" viewBox="0 0 24 25" fill="none" xmlns="http://www.w3.org/2000/svg">
<path d="M4.30775 20C3.80258 20 3.375 19.825 3.025 19.475C2.675 19.125 2.5 18.6974 2.5 18.1922V6.80775C2.5 6.30258 2.675 5.875 3.025 5.525C3.375 5.175 3.80258 5 4.30775 5H19.6923C20.1974 5 20.625 5.175 20.975 5.525C21.325 5.875 21.5 6.30258 21.5 6.80775V18.1922C21.5 18.6974 21.325 19.125 20.975 19.475C20.625 19.825 20.1974 20 19.6923 20H4.30775ZM10.9226 12.3688C11.5794 12.7888 12.4206 12.7888 13.0774 12.3688L19.6613 8.15881C19.8689 8.02611 19.9835 7.78746 19.9574 7.54252C19.9063 7.06291 19.3688 6.80423 18.9621 7.06343L13.0748 10.8151C12.4192 11.2329 11.5808 11.2329 10.9252 10.8151L5.03791 7.06343C4.63116 6.80423 4.09374 7.06291 4.04261 7.54252C4.0165 7.78746 4.13115 8.02611 4.33868 8.15881L10.9226 12.3688Z" fill="#464646"/>
</svg>
