<svg width="36" height="36" viewBox="0 0 36 36" fill="none" xmlns="http://www.w3.org/2000/svg">
<path d="M20.2 5.89831C20.2 5.3673 20.0148 4.92361 19.6403 4.55336C19.2658 4.18311 18.8171 4 18.28 4C17.7429 4 17.2942 4.18311 16.9197 4.55336C16.5452 4.92361 16.36 5.3673 16.36 5.89831V7.08011L16.1781 7.12553C14.3098 7.58737 12.796 8.56013 11.6294 10.0481C10.4627 11.5362 9.88 13.2348 9.88 15.1525V25.3559H8.18644C7.53119 25.3559 7 25.8871 7 26.5424C7 27.1976 7.53119 27.7288 8.18644 27.7288H28.3736C29.0288 27.7288 29.56 27.1976 29.56 26.5424C29.56 25.8871 29.0288 25.3559 28.3736 25.3559H26.68V16.8071C26.2406 16.7927 25.8055 16.7411 25.375 16.6476C24.9935 16.5648 24.6281 16.4579 24.28 16.326V25.3559H12.28V15.1525C12.28 13.523 12.8699 12.1223 14.0425 10.9629C15.2151 9.80352 16.6318 9.22034 18.28 9.22034C18.5548 9.22034 18.8133 9.23911 19.0553 9.27688C19.1935 9.29846 19.3339 9.32241 19.4762 9.34825C19.4765 8.86164 19.5256 8.38289 19.6291 7.91247C19.7494 7.36521 19.9411 6.83094 20.2 6.30892V5.89831Z" fill="#464646"/>
<path d="M18.28 32C19.0078 32 19.6253 31.7469 20.1447 31.2334C20.6059 30.7774 20.8577 30.2446 20.9087 29.6271H15.6512C15.7023 30.2446 15.9541 30.7774 16.4153 31.2334C16.9347 31.7469 17.5522 32 18.28 32Z" fill="#464646"/>
<path d="M31 9.45763C31 8.3334 30.6048 7.38548 29.8103 6.59997C29.0158 5.81447 28.0571 5.42373 26.92 5.42373C25.7829 5.42373 24.8242 5.81447 24.0297 6.59997C23.2352 7.38548 22.84 8.3334 22.84 9.45763C22.84 10.5819 23.2352 11.5298 24.0297 12.3153C24.8242 13.1008 25.7829 13.4915 26.92 13.4915C28.0571 13.4915 29.0158 13.1008 29.8103 12.3153C30.6048 11.5298 31 10.5819 31 9.45763Z" fill="#7651E9"/>
</svg>
