<svg width="42" height="42" viewBox="0 0 42 42" fill="none" xmlns="http://www.w3.org/2000/svg">
<rect width="42" height="42" rx="21" fill="#9E7FFF"/>
<path d="M21 21C19.5562 21 18.3203 20.4859 17.2922 19.4578C16.264 18.4297 15.75 17.1937 15.75 15.75C15.75 14.3062 16.264 13.0703 17.2922 12.0422C18.3203 11.014 19.5562 10.5 21 10.5C22.4437 10.5 23.6797 11.014 24.7078 12.0422C25.7359 13.0703 26.25 14.3062 26.25 15.75C26.25 17.1937 25.7359 18.4297 24.7078 19.4578C23.6797 20.4859 22.4437 21 21 21ZM10.5 31.5V27.825C10.5 27.0812 10.6914 26.3976 11.0742 25.7742C11.457 25.1508 11.9656 24.675 12.6 24.3469C13.9562 23.6687 15.3344 23.1601 16.7344 22.8211C18.1344 22.482 19.5562 22.3125 21 22.3125C22.4437 22.3125 23.8656 22.482 25.2656 22.8211C26.6656 23.1601 28.0437 23.6687 29.4 24.3469C30.0344 24.675 30.5429 25.1508 30.9258 25.7742C31.3086 26.3976 31.5 27.0812 31.5 27.825V31.5H10.5Z" fill="#1C1B1F"/>
<path fill-rule="evenodd" clip-rule="evenodd" d="M21 21C19.5562 21 18.3203 20.4859 17.2922 19.4578C16.264 18.4297 15.75 17.1937 15.75 15.75C15.75 14.3062 16.264 13.0703 17.2922 12.0422C18.3203 11.014 19.5562 10.5 21 10.5C22.4437 10.5 23.6797 11.014 24.7078 12.0422C25.7359 13.0703 26.25 14.3062 26.25 15.75C26.25 17.1937 25.7359 18.4297 24.7078 19.4578C23.6797 20.4859 22.4437 21 21 21ZM10.5 31.5V27.825C10.5 27.0812 10.6914 26.3976 11.0742 25.7742C11.457 25.1508 11.9656 24.675 12.6 24.3469C13.9562 23.6687 15.3344 23.1601 16.7344 22.8211C18.1344 22.482 19.5562 22.3125 21 22.3125C22.4437 22.3125 23.8656 22.482 25.2656 22.8211C26.6656 23.1601 28.0437 23.6687 29.4 24.3469C30.0344 24.675 30.5429 25.1508 30.9258 25.7742C31.3086 26.3976 31.5 27.0812 31.5 27.825V31.5H10.5Z" fill="white"/>
</svg>
