<svg width="24" height="25" viewBox="0 0 24 25" fill="none" xmlns="http://www.w3.org/2000/svg">
<mask id="mask0_1_84" style="mask-type:alpha" maskUnits="userSpaceOnUse" x="0" y="0" width="24" height="25">
<rect y="0.5" width="24" height="24" fill="#D9D9D9"/>
</mask>
<g mask="url(#mask0_1_84)">
<path d="M3 11.5V3.5H11V11.5H3ZM5 9.5H9V5.5H5V9.5ZM3 21.5V13.5H11V21.5H3ZM5 19.5H9V15.5H5V19.5ZM13 11.5V3.5H21V11.5H13ZM15 9.5H19V5.5H15V9.5ZM19 21.5V19.5H21V21.5H19ZM13 15.5V13.5H15V15.5H13ZM15 17.5V15.5H17V17.5H15ZM13 19.5V17.5H15V19.5H13ZM15 21.5V19.5H17V21.5H15ZM17 19.5V17.5H19V19.5H17ZM17 15.5V13.5H19V15.5H17ZM19 17.5V15.5H21V17.5H19Z" fill="#464646"/>
</g>
</svg>
