<svg width="24" height="24" viewBox="0 0 24 24" fill="none" xmlns="http://www.w3.org/2000/svg">
<rect width="24" height="24" rx="12" fill="#D4D5F9"/>
<path d="M11.5008 16.6318C11.9548 16.6318 12.3435 16.7964 12.6668 17.126C12.9901 17.4557 13.1521 17.8524 13.1522 18.3154C13.1522 18.7786 12.9902 19.1751 12.6668 19.5049C12.3434 19.8347 11.9549 20 11.5008 20C11.0467 20 10.6582 19.8347 10.3348 19.5049C10.0114 19.1751 9.84943 18.7786 9.84943 18.3154C9.84951 17.8524 10.0115 17.4557 10.3348 17.126C10.6581 16.7964 11.0468 16.6318 11.5008 16.6318Z" fill="white"/>
<path d="M11.5008 4C12.9457 4 14.0573 4.41039 14.8348 5.23145C15.6123 6.05248 16.0008 7.03861 16.0008 8.18945C16.0008 8.89104 15.8532 9.49108 15.5574 9.98926C15.2616 10.4875 14.7969 11.053 14.1639 11.6846C13.4896 12.3442 13.0799 12.8456 12.9354 13.1895C12.8581 13.3733 12.8015 13.6265 12.7655 13.9488C12.7043 14.4977 12.2709 14.9473 11.7186 14.9473H11.3445C10.7923 14.9473 10.3376 14.4987 10.3758 13.9477C10.4195 13.317 10.5092 12.8328 10.6443 12.4951C10.8439 11.9969 11.2671 11.4528 11.9139 10.8633C12.4779 10.3581 12.9081 9.91972 13.2039 9.54785C13.4998 9.17592 13.6473 8.75063 13.6473 8.27344C13.6472 7.69811 13.4583 7.22069 13.0799 6.8418C12.7015 6.46296 12.175 6.27344 11.5008 6.27344C10.799 6.27344 10.2659 6.49167 9.90118 6.92676C9.80088 7.04644 9.70861 7.16665 9.62439 7.28739C9.28906 7.76817 8.665 8.05163 8.12766 7.8174L7.83029 7.68776C7.35938 7.48249 7.11084 6.94684 7.35528 6.49501C7.65647 5.93829 8.06834 5.43633 8.59064 4.98926C9.36123 4.3298 10.3312 4 11.5008 4Z" fill="white"/>
</svg>
