<svg width="19" height="18" viewBox="0 0 19 18" fill="none" xmlns="http://www.w3.org/2000/svg">
<path d="M16.9833 17.28L10.5378 11.232C10.0263 11.616 9.43801 11.92 8.773 12.144C8.10799 12.368 7.40036 12.48 6.65009 12.48C4.79147 12.48 3.21847 11.876 1.93108 10.668C0.643695 9.46 0 7.984 0 6.24C0 4.496 0.643695 3.02 1.93108 1.812C3.21847 0.604 4.79147 0 6.65009 0C8.5087 0 10.0817 0.604 11.3691 1.812C12.6565 3.02 13.3002 4.496 13.3002 6.24C13.3002 6.944 13.1808 7.608 12.9421 8.232C12.7034 8.856 12.3794 9.408 11.9702 9.888L18.4156 15.936L16.9833 17.28ZM6.65009 10.56C7.92895 10.56 9.01599 10.14 9.91119 9.3C10.8064 8.46 11.254 7.44 11.254 6.24C11.254 5.04 10.8064 4.02 9.91119 3.18C9.01599 2.34 7.92895 1.92 6.65009 1.92C5.37123 1.92 4.28419 2.34 3.38899 3.18C2.49378 4.02 2.04618 5.04 2.04618 6.24C2.04618 7.44 2.49378 8.46 3.38899 9.3C4.28419 10.14 5.37123 10.56 6.65009 10.56Z" fill="#B0B2E4"/>
</svg>
